<?xml version="1.0" encoding="UTF-8"?>
<!DOCTYPE svg PUBLIC "-//W3C//DTD SVG 1.1//EN" "http://www.w3.org/Graphics/SVG/1.1/DTD/svg11.dtd">
<!-- Creator: CorelDRAW X7 -->
<svg xmlns="http://www.w3.org/2000/svg" xml:space="preserve" width="1589px" height="993px" version="1.1" style="shape-rendering:geometricPrecision; text-rendering:geometricPrecision; image-rendering:optimizeQuality; fill-rule:evenodd; clip-rule:evenodd"
viewBox="0 0 774 484"
 xmlns:xlink="http://www.w3.org/1999/xlink">
 <defs>
  <style type="text/css">
   <![CDATA[
    .fil0 {fill:black}
   ]]>
  </style>
 </defs>
 <g id="Layer_x0020_1">
  <metadata id="CorelCorpID_0Corel-Layer"/>
  <g id="_1950244970512">
   <path class="fil0" d="M104 67l-14 0 0 -1 0 0c0,0 1,0 1,0 0,0 0,0 1,0 0,0 1,0 1,-1 1,0 2,-2 2,-3 0,-1 0,-15 0,-43 0,-3 0,-2 0,-4l9 0 0 2 0 14 0 1 0 14 0 15c1,2 1,4 3,5 0,0 2,0 4,0l1 0c4,-1 7,-2 10,-4 3,-1 5,-3 7,-6 1,-1 1,-3 2,-5 0,-1 0,-3 0,-5 0,-4 -1,-7 -3,-10 -4,-4 -8,-6 -13,-7 6,-2 11,-6 11,-13 0,-2 -1,-4 -1,-5 -2,-4 -5,-6 -10,-8 -1,0 -3,0 -4,-1 -1,0 -2,0 -3,0 -6,0 -13,2 -15,11l-10 -5c0,-4 3,-6 7,-7l14 0c6,0 11,1 17,2 5,2 9,5 11,9 0,1 1,2 1,3 0,1 -1,2 -1,3 0,1 -1,3 -2,4 -2,3 -5,5 -10,7 8,2 14,5 18,9 3,2 4,6 4,9 0,1 0,2 0,3 -1,6 -5,11 -12,14 -5,2 -12,3 -20,3 -2,0 -4,0 -5,0 0,0 0,0 -1,0zm1 -65l-1 0 0 0 1 0z"/>
   <path class="fil0" d="M161 34c0,4 0,9 2,13 1,4 3,7 6,11 3,3 6,5 10,7 4,1 7,2 11,2 5,0 8,-1 12,-2 4,-2 7,-4 10,-7 2,-4 5,-7 6,-11l-9 0c-2,5 -4,9 -6,12 -3,4 -6,6 -9,7 -1,0 -2,0 -4,0 -1,0 -2,0 -3,0 -4,-1 -7,-3 -10,-7 -7,-8 -8,-27 -6,-38 1,-5 3,-9 6,-13 3,-3 6,-5 10,-6 1,0 2,0 3,0 2,0 3,0 4,0 3,1 6,3 9,6 2,4 4,8 6,13l9 0c-1,-4 -4,-8 -6,-11 -3,-3 -6,-5 -10,-7 -4,-2 -7,-2 -12,-2 -4,0 -7,0 -11,2 -4,2 -7,4 -10,7 -3,3 -5,7 -6,11 -2,4 -2,8 -2,13z"/>
   <path class="fil0" d="M249 67l-14 0 0 -1c0,0 0,0 0,0 0,0 1,0 1,0 0,0 1,0 1,0 0,0 1,0 1,-1 1,-1 2,-2 2,-3 0,-1 0,-11 0,-31l0 0 0 0 0 -1 0 0 0 0 0 0 0 0 0 0 0 0 0 -1 0 0 0 0 0 0 0 0 0 0 0 0 0 -1 0 0 0 0 0 0 0 0 0 0 0 0 0 -1 0 0 0 0 0 0 0 -1 0 0 0 0 0 0 0 0 0 -1 0 0 0 0 0 0 0 0 0 -1 0 0 0 0 0 -1 0 0 0 -4c0,-3 0,-2 0,-4l9 0 0 2 0 14 0 0 0 28c0,1 0,1 1,2 0,1 0,2 1,3 0,1 1,1 1,1 4,0 7,0 10,0 6,-2 10,-5 13,-9 3,-5 5,-11 5,-19l0 -2c0,-3 0,-5 0,-7 0,-3 0,-6 -1,-9 0,-3 -1,-5 -3,-8 -3,-4 -7,-6 -13,-8 -2,0 -5,-1 -8,-1l0 0c-1,0 -1,0 -2,0 -6,0 -13,2 -15,11l-10 -5c0,-4 3,-6 7,-7l14 0c2,0 4,0 6,0 3,0 5,1 8,1 8,1 14,2 18,6 5,3 8,8 9,14 0,5 1,9 1,12 0,2 0,3 -1,5 0,5 -1,9 -3,12 -1,4 -4,6 -7,8 -4,3 -8,5 -12,5 -4,1 -9,2 -13,2l-2 0c-1,1 -2,1 -4,1zm1 -65l-1 0 0 0 1 0z"/>
   <path class="fil0" d="M354 67l-48 0 0 -1 1 0c0,0 0,0 1,0 0,0 1,0 1,0 2,-1 3,-3 3,-5 0,0 0,-3 0,-9l0 -21 0 0 0 -9 0 -4c0,-2 0,-2 0,-3l9 0 0 2 0 0 0 12 14 0 0 1 -14 0 0 1c0,19 0,29 0,30 0,2 1,4 2,5l26 0c1,0 1,0 2,-1 2,0 3,-1 3,-3 0,0 0,-1 0,-2 0,-1 0,-1 0,-2l0 0 0 9zm-45 -54l-10 -5c1,-4 4,-6 7,-7l7 0 0 0 22 0 0 0 20 0 0 8 -1 0c0,0 0,0 0,-1l0 -1c0,-2 0,-3 -1,-3 -1,-1 -2,-2 -4,-2l-22 0c-8,0 -16,2 -18,11z"/>
   <path class="fil0" d="M392 67l-21 0 0 -1 1 0c0,0 0,0 1,0 1,0 1,0 2,0 1,-1 2,-3 2,-5l0 -42 0 0c0,-3 0,-2 0,-4l9 0 0 2 0 2 0 10 21 0 0 1 -21 0 0 31c0,2 1,4 3,5 0,0 1,0 2,0 0,0 0,0 0,0l1 0 0 1zm-17 -54l-10 -5c0,-4 3,-6 6,-7l15 0c0,0 1,0 2,0l32 0 0 8 -1 0c0,0 0,-1 0,-1 0,-2 0,-4 0,-4 -1,-1 -3,-2 -5,-2l-22 0c-8,1 -15,1 -17,11z"/>
   <path class="fil0" d="M492 39l0 0 0 0 0 28 0 0 0 0 0 0c-5,-5 -10,-6 -18,-3l0 0c0,0 0,1 -1,1 -3,1 -7,2 -10,2 -4,0 -7,-1 -11,-2 -3,-2 -6,-4 -9,-6 -3,-3 -5,-7 -7,-11 -2,-4 -3,-9 -3,-13 0,-5 0,-9 2,-13 0,0 0,0 0,0 2,-5 4,-10 8,-14 4,-3 8,-6 13,-7 5,-1 9,-1 14,0 5,1 9,4 13,7 3,4 6,8 8,13l-10 0c-1,-3 -1,-5 -2,-7 -1,-3 -3,-5 -4,-7 -2,-2 -4,-3 -6,-5 0,0 0,0 0,0 -4,-1 -8,-1 -11,0 -3,1 -5,2 -7,4 -3,3 -5,6 -6,9 -1,4 -2,7 -2,11 -1,4 0,8 1,11 1,5 3,9 5,13 2,3 4,5 6,7 2,1 5,3 7,4 3,1 6,1 9,1 4,0 8,-2 12,-5 0,0 0,0 0,-1 0,0 0,0 1,-1 0,-1 1,-2 1,-4 1,-2 1,-3 1,-5 0,-1 -1,-3 -2,-4 0,0 -1,0 -1,0 -1,-1 -2,-1 -3,-2 -1,0 -2,0 -3,0l-2 0 -10 0 0 -1 27 0z"/>
   <path class="fil0" d="M567 67l-20 0 0 -1 1 0c0,0 1,0 1,0 1,0 2,-1 2,-1 1,-2 1,-3 1,-4 0,-1 0,-6 0,-16 0,-4 0,-8 0,-11l0 -4 -28 0 0 29c0,1 0,2 0,3 0,1 1,2 1,3 1,1 1,1 2,1 0,0 1,0 1,0 0,0 0,0 1,0l0 0 0 1 -20 0 0 -1 0 0 1 0c0,0 1,0 1,0 0,0 1,0 1,0 1,-1 2,-3 2,-5 0,-1 0,-2 0,-3 0,-1 0,-1 0,-2l0 -47c0,-2 0,-3 0,-4 -1,-3 -2,-4 -4,-4 0,0 -1,1 -1,1l0 -1 20 0 0 1c-1,-1 -1,-1 -1,-1 -1,0 -1,1 -2,1 0,0 -1,1 -2,2 0,1 0,2 0,4l0 21 28 0 0 -21c0,-2 0,-3 -1,-4 0,-1 -1,-2 -2,-2 0,0 -1,-1 -1,-1l-1 1 0 -1 20 0 0 1c-1,-1 -1,-1 -1,-1 -1,0 -1,1 -1,1 -1,0 -2,0 -2,1 -1,1 -1,3 -1,5 0,0 -1,0 -1,1l0 50c0,1 1,2 1,2 0,2 1,4 2,5 0,0 1,0 2,0 0,0 0,0 1,0 0,0 0,0 0,0l0 1z"/>
   <path class="fil0" d="M604 67l-21 0 0 -1c0,0 1,0 1,0 1,0 1,0 1,0 1,0 1,0 1,0 2,-1 2,-3 2,-4 1,-2 1,-3 1,-4 0,-1 0,-1 0,-2 0,0 0,-1 0,-1l0 -46c0,-2 -1,-3 -1,-4 0,-2 -1,-3 -2,-3 0,0 -1,-1 -2,-1 0,0 0,0 -1,1l0 -1 21 0 0 1c-1,-1 -2,-1 -2,-1 0,0 -1,1 -1,1 -1,0 -1,0 -2,1 -1,1 -1,3 -1,5l0 0 0 51c0,1 0,2 0,2 0,2 1,4 2,5 1,0 1,0 2,0 0,0 1,0 1,0l1 0 0 1z"/>
   <path class="fil0" d="M23 195c-1,0 -3,0 -5,-1 -3,-1 -8,-4 -8,-8 0,-3 3,-5 6,-5 3,0 5,2 5,5 0,2 -1,4 -3,5 0,0 0,1 0,1 2,1 3,2 5,2l0 0c1,0 3,0 4,-1 0,0 1,0 1,0 1,-1 2,-3 2,-6 1,-2 1,-4 1,-7l0 -44c0,-1 -1,-3 -1,-4 0,-1 -1,-2 -2,-2 0,0 -1,-1 -1,-1 -1,0 -1,0 -2,0l0 0 21 0 0 0 -2 0c0,0 -1,0 -1,1 -1,0 -2,1 -2,2 -1,1 -1,3 -1,4l0 0 0 0 0 41c0,2 0,3 0,4 -1,2 -2,5 -3,7 -1,1 -2,2 -3,2 -1,2 -3,3 -5,4 -2,0 -4,1 -6,1z"/>
   <path class="fil0" d="M82 195l-20 0 0 -1 1 0c1,0 2,0 2,0 2,-2 2,-3 2,-5l0 -1c0,-35 0,-53 0,-53 0,-2 0,-4 -2,-5 0,-1 -1,-1 -2,-1 0,0 -1,0 -1,0l0 0 20 0 0 0c0,0 -1,0 -1,0 0,0 -1,0 -1,0 0,0 -1,0 -1,1 -1,1 -2,3 -2,5 0,0 0,8 0,22l27 -25c0,-1 0,-1 0,-1 0,-1 -1,-1 -3,-2 0,0 -1,0 -2,0l0 0 14 0 0 0 -1 0c-3,0 -5,1 -7,3l-20 19 0 0 9 13 0 0 0 1 1 1 0 0c4,6 8,12 12,18l2 3 1 1c3,4 5,5 8,6 1,0 2,0 3,0l1 0 0 1 -28 0 0 -1c0,0 0,0 0,0 1,0 2,0 3,0 1,-1 1,-1 2,-2 0,-1 0,-1 0,-1 0,-1 0,-2 -1,-3l-14 -37 0 0 0 0 -6 6 -1 2c0,19 0,29 0,30 0,2 1,3 2,5 1,0 1,0 2,0 0,0 1,0 1,0l0 0 0 1z"/>
   <path class="fil0" d="M138 195l0 -1c0,0 1,0 1,0 1,0 2,0 2,0 1,-2 2,-3 2,-5l0 -54 0 0c0,-1 0,-2 0,-3 -1,-1 -1,-2 -2,-2 0,-1 -1,-1 -2,-1 0,0 -1,0 -1,0l0 0 20 0 0 0c0,0 -1,0 -1,0 0,0 -1,0 -1,0 0,0 -1,0 -1,1 -1,0 -1,1 -2,2 0,1 0,3 0,3l0 54c0,2 0,3 2,5l25 0c2,0 4,-1 5,-2 0,-1 0,-2 0,-4 0,-1 0,-1 0,-2l1 0 0 9 -48 0z"/>
   <path class="fil0" d="M280 195l-20 0 0 -1 0 0c0,0 1,0 1,0 1,0 1,0 2,0 1,-2 2,-3 2,-5l0 -25 0 -25 -30 34 -26 -30 0 46c0,2 1,3 2,5 1,0 1,0 2,0 1,0 1,0 2,0l0 1 -12 0 0 -1c0,0 0,0 1,0 0,0 1,0 1,0 0,0 1,0 1,0 1,-2 2,-3 2,-5l0 -54c0,-2 -1,-4 -2,-5 0,0 -1,-1 -1,-1 0,0 -1,0 -1,0 0,0 -1,0 -1,0l0 0 0 0 6 0 32 36 32 -36 7 0 0 0 0 0c-1,0 -1,0 -1,0 0,0 -1,0 -1,0 0,0 -1,0 -1,1 -1,0 -2,1 -2,2 0,1 0,2 0,3 0,0 0,3 0,9 0,19 0,31 0,36 0,5 0,8 0,9 0,2 0,3 2,5 0,0 0,0 1,0 0,0 0,0 1,0 0,0 1,0 1,0l0 1z"/>
   <path class="fil0" d="M350 195l-6 0 -41 -51 0 45c0,2 1,3 2,5 1,0 1,0 2,0 1,0 1,0 1,0l0 1 -11 0 0 -1c0,0 0,0 1,0 0,0 1,0 1,0 0,0 1,0 1,0 1,-2 2,-3 2,-5l0 -54c0,-2 -1,-4 -2,-5 0,0 -1,-1 -1,-1 0,0 -1,0 -1,0 0,0 -1,0 -1,0l0 0 0 0 6 0 46 56 0 -51c0,-2 -1,-3 -2,-4 -1,0 -1,-1 -1,-1 0,0 -1,0 -1,0 -1,0 -1,0 -1,0l-1 0 0 0 12 0 0 0 0 0c-1,0 -1,0 -1,0 -1,0 -1,0 -1,0 -1,0 -1,0 -1,1 -1,1 -2,2 -2,4l0 61z"/>
   <path class="fil0" d="M405 195c-5,0 -9,-1 -13,-3 -4,-1 -8,-4 -11,-7 -3,-3 -5,-6 -7,-10 -2,-4 -3,-9 -3,-13 0,-5 1,-9 3,-13 2,-4 4,-8 7,-11 3,-3 7,-5 11,-7 4,-2 8,-3 13,-3 4,0 8,1 13,3 4,2 7,4 10,7 3,3 6,7 7,11 2,4 3,8 3,13 0,4 -1,9 -3,13 -1,4 -4,7 -7,10 -3,3 -6,6 -10,7 -5,2 -9,3 -13,3zm0 -1c3,0 6,-1 9,-3 2,-1 5,-4 7,-7 2,-3 3,-6 4,-10 1,-4 2,-8 2,-12 0,-6 -1,-11 -3,-16 -1,-4 -4,-8 -6,-11 -3,-3 -7,-5 -10,-6 -1,0 -2,0 -3,0 -1,0 -2,0 -3,0 -4,1 -7,3 -10,6 -3,3 -6,7 -7,11 -2,5 -3,10 -3,16 0,4 1,8 2,12 1,4 3,7 5,10 2,3 4,6 7,7 2,2 5,3 8,3l1 0z"/>
   <path class="fil0" d="M474 195l-20 0 0 -1 0 0c0,0 1,0 1,0 0,0 1,0 1,0 1,0 2,-1 2,-2 1,-1 1,-2 1,-4 0,0 0,-8 0,-22l0 -8 0 0c0,-3 0,-7 0,-11 0,-4 0,-3 0,-5l9 0 0 2 0 4 0 10 0 10c2,-1 4,-2 6,-3 1,0 3,-1 5,-2l2 0c6,-3 11,-7 13,-11 1,-3 2,-5 2,-8 0,-3 -1,-6 -3,-8 -1,-2 -3,-4 -6,-6 -3,0 -7,-1 -11,-1 -9,0 -17,1 -19,11l-10 -5c0,-3 3,-6 7,-7l14 0c1,0 2,0 2,0l0 0c1,0 5,0 6,0 2,0 5,1 7,1 6,0 11,1 15,3 5,3 8,7 8,12l0 0c0,3 -1,6 -3,8 -2,3 -5,6 -10,8 -3,1 -7,2 -11,4 -2,0 -4,1 -5,1 -2,1 -3,1 -5,2 -1,1 -2,1 -4,2l0 19c1,1 1,3 1,4 1,1 2,2 2,2 1,0 1,0 2,0l1 0 0 1z"/>
   <path class="fil0" d="M64 323l-12 0 -22 -28c-1,1 -3,1 -4,2l0 20c1,2 1,3 3,5 0,0 1,0 2,0 0,0 1,0 1,0l0 1 -20 0 0 -1 0 0c0,0 1,0 1,0 1,0 1,0 2,0 1,-2 2,-3 2,-6l0 -30 0 0 0 -3 0 0 0 0 0 -1 0 -8 0 0c0,-3 0,-2 0,-4l9 0 0 2 0 2 0 0 0 22 0 0c1,-1 2,-1 3,-2l0 0c2,0 4,-1 8,-2l2 -1c3,-1 5,-3 7,-5 5,-3 7,-8 7,-14l0 0c0,-6 -3,-11 -8,-14 -2,0 -4,0 -7,0 0,0 -1,0 -1,-1 -9,0 -20,0 -22,11l-10 -5c0,-3 3,-6 7,-6l14 -1c0,0 1,0 1,1l10 0c11,0 18,2 23,6 3,2 4,6 4,10 0,5 -3,9 -8,12 -2,1 -5,3 -8,4 -3,1 -6,2 -9,3l0 0 25 31 4 0 -9 -7 5 7zm-37 -66l-1 0 0 0 1 0z"/>
   <path class="fil0" d="M108 323c-3,0 -6,-1 -8,-1 0,0 -1,0 -1,0 -4,-2 -8,-4 -11,-7 -2,-1 -3,-2 -4,-4 -1,-2 -1,-3 -1,-5 0,-1 0,-2 0,-3 1,-2 2,-4 3,-6 1,1 8,3 11,5 -2,1 -11,0 -5,11 1,2 3,4 5,6 2,1 4,2 7,2 1,0 2,1 3,1 3,0 6,-1 8,-3 3,-1 4,-3 6,-5 1,-3 2,-5 2,-8 0,-1 0,-1 0,-2 -1,-3 -5,-7 -13,-11 -2,-1 -4,-1 -6,-2 -2,-1 -4,-1 -5,-2 -1,0 -1,0 -1,0l0 0c-2,-1 -4,-1 -5,-2 -3,-2 -5,-4 -6,-6 -2,-2 -3,-5 -3,-8 0,0 0,-1 1,-2 0,-3 1,-5 3,-7 2,-2 4,-4 6,-5 4,-2 8,-3 12,-3 2,0 3,1 5,1 2,0 5,1 7,2 3,2 5,3 7,6 1,1 2,3 2,4 1,2 1,3 1,4 0,1 0,2 0,3l-10 -6c4,-1 3,-4 1,-7 -2,-2 -4,-4 -6,-5 -2,0 -4,0 -5,-1 -3,1 -5,1 -7,3 -2,1 -3,3 -4,6 -1,2 -2,5 -2,7 0,2 0,3 0,4 1,3 4,6 9,8 3,2 7,3 11,4l2 1 2 0c4,2 8,4 11,7 1,1 2,3 3,5 0,1 0,2 0,4 0,0 0,1 0,1 0,4 -2,7 -5,9 -4,3 -7,5 -11,6 -3,0 -6,1 -9,1z"/>
   <path class="fil0" d="M186 322l-20 0 0 0 0 0c1,0 1,0 1,0 1,0 2,0 2,-1 2,-1 2,-2 3,-5 0,0 0,-3 0,-8 0,-5 0,-11 0,-18l0 -27 0 0c-1,-2 -1,-4 -3,-5l-20 0c-2,0 -3,0 -4,1 -1,1 -1,2 -1,5 0,0 0,1 0,1l0 0 0 -8 65 0 0 8 -1 0c0,0 0,-1 0,-2 0,-2 0,-3 0,-4 -1,-1 -3,-1 -5,-1l-20 0c-1,1 -2,3 -2,5 0,0 0,3 0,9l0 18 0 26c0,3 1,4 2,5 1,1 1,1 2,1 1,0 1,0 1,0l0 0z"/>
   <path class="fil0" d="M257 322c-6,0 -12,-2 -17,-5l-1 -1c0,-1 -1,-1 -1,-1 -1,-2 -3,-4 -4,-6 -2,-4 -3,-8 -3,-13 0,-3 0,-9 0,-17 0,-4 0,-8 0,-11l0 -5c0,-3 -1,-4 -3,-5 0,-1 -1,-1 -1,-1 -1,0 -1,0 -2,0l0 0 21 0 0 0c-1,0 -1,0 -2,0 0,0 0,0 -1,0 0,0 0,0 -1,1 0,0 -1,1 -1,2 -1,1 -1,2 -1,3l0 17 0 18c0,3 1,6 2,9 1,2 3,5 4,7 2,2 5,3 7,5 2,1 5,1 8,1 2,0 4,0 6,-1 2,-1 4,-2 6,-4 2,-2 5,-5 6,-8 2,-3 2,-6 3,-10l0 -35c-1,-2 -1,-3 -3,-4 0,-1 -1,-1 -2,-1 0,0 0,0 -1,0l0 0 12 0 0 0c-1,0 -1,0 -1,0 -1,0 -1,0 -1,0 -1,0 -1,0 -1,1 -2,1 -2,2 -3,4l0 34c0,2 0,4 0,5 -1,5 -3,10 -7,14 -1,0 -1,1 -2,2 -5,4 -10,5 -16,5z"/>
   <path class="fil0" d="M341 322l-1 0 -28 -60c-1,-2 -2,-4 -4,-4 -1,-1 -1,-1 -2,-1 0,0 -1,0 -1,0l0 0 0 0 24 0 0 0 0 0c0,0 -1,0 -2,0 -2,0 -3,1 -4,1 0,0 0,1 0,2 0,0 0,1 0,2 0,0 0,1 0,1l1 1 0 0 21 48c16,-35 24,-53 24,-53 0,0 -1,-1 -2,-1 -1,-1 -1,-1 -2,-1l-1 0 0 0 11 0 0 0 -1 0c0,0 0,0 -1,1 -1,0 -1,0 -2,0 0,1 -1,1 -1,2l-29 62z"/>
   <path class="fil0" d="M588 323l-29 0 0 -1 0 0c0,0 0,0 1,0 0,0 1,0 1,0 2,0 3,-1 4,-2 0,0 0,-1 0,-1 0,-1 0,-2 0,-3l-15 -22 -14 22c0,0 0,0 0,1 -1,0 -1,1 -1,1 0,1 0,1 0,2 0,0 1,1 2,1 1,1 2,1 4,1l0 0 2 0 0 1 -21 0 0 -1 2 0 1 0c1,0 3,0 4,-1 1,-1 2,-1 3,-2 1,-1 2,-2 2,-3l1 -1 15 -22 -21 -30c0,-1 -1,-2 -3,-3 -1,-1 -3,-2 -6,-3 0,0 -1,0 -1,0 0,0 -1,0 -1,0l0 0 0 0 29 0 0 0 0 0c0,0 -1,0 -1,0 -2,0 -3,1 -4,1 -1,1 -2,2 -2,3 0,0 0,0 0,0 0,1 0,1 1,2 0,0 0,0 0,1l0 0 14 21 14 -21 0 0c1,-1 1,-1 1,-2 0,0 0,-1 0,-1 0,-2 -2,-4 -6,-4l-1 0 -1 0 0 0 21 0 0 0 -1 0 -1 0c-2,0 -4,1 -5,2 -2,1 -3,2 -4,3 -1,1 -1,2 -2,2l-14 22 19 29 1 1c0,1 1,1 2,2 1,1 2,2 3,2 1,1 3,2 4,2 1,0 1,0 2,0 0,0 0,0 0,0l1 0 0 1z"/>
   <path class="fil0" d="M643 322l-20 0 0 0c0,0 0,0 0,0 0,0 1,0 1,0 1,0 1,0 2,-1 1,-1 2,-3 2,-5 0,0 0,-5 0,-14l0 -14 -16 -25c-1,-1 -2,-2 -4,-3 -1,-2 -3,-2 -6,-3 0,0 -1,0 -1,0 0,0 0,0 -1,0l0 0 0 0 29 0 0 0 -1 0c-1,0 -1,0 -1,0 -1,0 -2,1 -3,1 -1,1 -2,1 -2,3 0,0 0,0 0,0 1,0 1,1 1,1 0,1 0,1 0,1l1 1 13 21 14 -21c0,0 1,-1 1,-1 0,-1 0,-2 0,-2 0,-1 0,-1 0,-2 0,0 -1,-1 -2,-1 0,-1 -2,-1 -3,-1 -1,0 -1,0 -2,0l0 0 -1 0 0 0 21 0 0 0 -2 0 0 0c-3,0 -6,2 -9,4 -1,1 -1,2 -1,3l-16 23 0 29c0,1 1,2 1,3 0,1 1,2 2,2 0,1 0,1 1,1 0,0 0,0 1,0l1 0 0 0z"/>
   <path class="fil0" d="M740 322l-59 0 39 -58 0 0 0 -1c1,0 1,0 1,-1 0,0 0,-1 0,-2 0,-1 -1,-2 -2,-2l-15 0c-9,0 -14,0 -14,0 -2,0 -3,0 -4,1 -1,1 -1,2 -1,4 0,1 0,1 0,2l0 0 0 -8 51 0 -39 59c0,0 -1,1 -1,1 0,1 0,1 0,1 0,1 0,1 0,2 1,0 1,1 3,1l35 0c2,0 4,0 5,-1 0,-1 0,-2 0,-4 0,-1 0,-2 0,-2l1 0 0 8z"/>
   <path class="fil0" d="M39 14l1 1 13 38c-3,-3 -25,-29 -28,-17l0 0 4 6 5 8c0,-16 16,1 20,4l2 7c0,1 1,1 1,2 0,3 -3,3 -5,3l0 1 22 0 0 -1 -1 0c-3,0 -6,-3 -7,-6l-22 -59 0 0 -5 13zm-16 44l-1 2c-1,3 -6,6 -10,6l0 1 17 0 0 -1c-3,0 -6,-1 -6,-4l0 -4z"/>
   <path class="fil0" d="M557 195c-4,0 -8,-1 -11,-3 -4,-1 -8,-4 -11,-7 -3,-3 -5,-6 -7,-10 -2,-4 -3,-9 -3,-13 0,-5 1,-9 3,-13 2,-4 4,-8 7,-11 3,-3 7,-5 11,-7 4,-2 8,-3 13,-3 4,0 9,1 13,3 4,2 7,4 10,7 3,3 6,7 7,11 2,4 3,8 3,13 0,4 -1,9 -3,13 -1,4 -4,7 -7,10 -3,3 -6,6 -10,7 -4,2 -7,3 -11,3 -1,0 -3,1 -4,1 -4,1 -9,2 -14,3 3,0 6,1 9,1 13,2 25,4 35,-9l-6 16c-11,1 -19,-1 -27,-4 -5,-1 -10,-2 -15,-3 -1,0 -1,-1 -1,-1 0,0 0,0 1,0l0 0c6,-1 12,-3 18,-4zm3 -1c3,-1 5,-1 7,-2 0,0 0,0 1,-1 2,-1 5,-4 7,-7 2,-3 3,-6 4,-10 2,-4 2,-8 2,-12 0,-6 -1,-11 -2,-16 -2,-4 -4,-8 -7,-11 -3,-3 -7,-5 -10,-6 -1,0 -2,0 -3,0 -1,0 -2,0 -3,0 -4,1 -7,3 -10,6 -3,3 -5,7 -7,11 -2,5 -3,10 -3,16 0,4 1,8 2,12 1,4 3,7 5,10 2,3 4,6 7,7 2,2 5,3 8,3l1 0c1,0 1,0 1,0z"/>
   <path class="fil0" d="M437 257l2 5c0,0 0,0 0,0l0 1 1 1 0 0 1 1 6 15 -15 32 -4 -10c-8,-17 -13,-30 -17,-38l0 -1c-1,-1 -1,-2 -1,-3 0,-2 1,-3 3,-3 1,0 2,0 3,0l0 0 0 0 -24 0 0 0 0 0c1,0 2,0 3,0 2,1 3,2 4,4l17 37 11 24 2 0 18 -41 19 41 2 0 15 -33 13 -29c0,0 0,0 0,0 1,-1 2,-2 3,-3 1,0 2,0 2,0l1 0 0 0 -11 0 0 0 0 0c0,0 1,0 1,0 1,0 1,0 2,1 0,0 1,0 1,0 0,1 0,1 0,1 0,0 -1,4 -4,11 -10,21 -16,35 -19,42l-9 -19 -9 -21 -2 -4 0 0 -1 -2 0 0 -4 -9 -10 0z"/>
   <path class="fil0" d="M47 419l1 2 13 37c-2,-3 -57,-37 -61,-20l0 0 4 6 5 7c1,-19 50,5 53,9l3 7c0,0 0,1 0,2 0,3 -3,3 -5,3l0 1 22 0 0 -1 0 0c-4,0 -7,-3 -8,-6l-21 -59 -1 0 -5 12zm-15 45l-2 2c-1,3 -6,6 -10,6l0 1 17 0 0 -1c-3,0 -6,-1 -6,-4l1 -4z"/>
   <g>
    <path class="fil0" d="M116 462l0 -1c0,0 1,0 1,0 1,0 1,0 2,0 1,-1 1,-3 2,-4l0 -44 0 -1c0,-1 -1,-1 -1,-2 0,-1 -1,-2 -1,-2 -1,0 -1,-1 -2,-1 0,0 -1,0 -1,0l0 0 17 0 0 0c-1,0 -1,0 -1,0 0,0 -1,0 -1,0 0,0 0,1 -1,1 0,0 -1,1 -1,2 0,1 -1,2 -1,2l0 45c0,1 1,3 2,4l41 0 0 1 -55 0z"/>
    <path class="fil0" d="M186 417l1 2 11 31c-2,-3 -48,-31 -51,-17l0 0 3 5 4 6c1,-16 42,4 45,7l2 6c0,0 0,1 0,1 0,3 -2,3 -4,3l0 1 18 0 0 -1 0 0c-3,0 -5,-2 -6,-5l-18 -49 -1 0 -4 10zm-13 37l-1 2c-1,3 -5,5 -9,5l0 1 15 0 0 -1c-3,0 -5,0 -5,-3l0 -4z"/>
   </g>
   <path class="fil0" d="M259 448c0,5 1,9 2,14 2,4 4,8 7,11 3,3 6,6 10,8 4,2 8,3 13,3 4,0 8,-1 12,-3 24,-12 32,-48 45,-61 4,-4 7,-6 11,-6 1,-1 2,-1 3,-1 1,0 2,0 3,1 4,0 8,2 11,6 3,3 5,7 7,12 2,5 3,10 3,16 0,5 -1,9 -2,13 -1,4 -3,8 -5,11 -2,3 -4,6 -7,8 -3,1 -6,2 -9,2l-1 0c-4,0 -7,-1 -9,-2 -3,-2 -6,-5 -8,-8 -2,-3 -4,-7 -5,-11 -1,-3 -1,-7 -2,-11l-9 11c0,0 0,1 0,1 2,4 5,8 8,11 3,3 7,6 11,8 5,2 9,3 14,3 5,0 10,-1 14,-3 4,-2 8,-5 11,-8 4,-3 6,-7 8,-11 2,-5 3,-9 3,-14 0,-5 -1,-9 -3,-14 -2,-4 -4,-8 -8,-11 -3,-3 -7,-6 -11,-8 -4,-2 -9,-3 -14,-3 -5,0 -9,1 -14,3 -25,11 -34,61 -54,67 0,0 -2,0 -4,0 -1,0 -2,0 -3,0 -4,-1 -8,-3 -11,-7 -7,-9 -9,-30 -6,-41 1,-5 3,-9 6,-13 3,-4 7,-6 11,-7 1,0 2,0 3,0 2,0 4,0 4,0 4,1 7,3 10,7 2,3 4,8 6,13l10 0c-2,-4 -4,-8 -7,-11 -3,-3 -6,-6 -10,-8 -4,-2 -8,-3 -12,-3 -5,0 -9,1 -13,3 -4,2 -7,5 -10,8 -3,3 -5,7 -7,11 -1,5 -2,9 -2,14z"/>
   <path class="fil0" d="M483 474l-48 0 0 -1 1 0c0,1 0,1 1,1 0,0 1,-1 2,-1 1,-1 2,-3 2,-5 0,0 0,-3 0,-9l0 -21 0 0 0 -9 0 -4c0,-2 0,-1 0,-3l9 0 0 2 0 0 0 12 14 0 0 1 -14 0 0 1c0,20 0,30 0,30 0,2 1,4 2,5l26 0c1,0 1,0 2,0 2,-1 3,-2 3,-3 0,-1 0,-2 0,-3 0,-1 0,-1 0,-1l0 0 0 8zm41 -53l1 1 14 38c-3,-3 -58,-38 -62,-21l0 0 4 6 5 8c1,-20 50,5 53,8l3 7c0,1 0,1 0,2 0,3 -3,4 -5,3l0 1 22 0 0 -1 0 0c-4,1 -7,-3 -8,-6l-21 -59 -1 0 -5 13zm-15 44l-2 3c-1,3 -6,6 -10,5l0 1 17 0 0 -1c-3,1 -6,0 -6,-4l1 -4zm-71 -45l-10 -5c1,-4 4,-6 7,-7l7 0 0 0 22 0 0 0 20 0 0 8 -1 0c0,0 0,0 0,-1l0 -1c0,-1 0,-2 0,-3 -1,-1 -3,-2 -5,-2l-22 0c-8,0 -15,2 -18,11z"/>
   <path class="fil0" d="M649 475l-58 0 39 -58 0 0 0 -1c0,0 1,-1 1,-1 0,-1 0,-1 0,-2 0,-1 -1,-2 -2,-3l-15 0c-9,0 -14,0 -14,0 -2,0 -4,1 -5,2 0,1 0,2 0,4 0,1 0,1 0,1l-1 0 0 -8 52 0 -39 59c-1,1 -1,1 -1,2 0,0 0,1 0,1 0,0 0,1 0,1 0,1 1,2 2,2l36 0c2,0 3,-1 4,-2 1,0 1,-2 1,-4 0,0 0,-1 0,-1l0 0 0 8zm-2 -53l1 1 13 38c-3,-3 -25,-29 -28,-17l0 1 4 5 5 8c0,-16 16,1 20,4l2 7c0,1 0,1 0,2 0,3 -2,4 -5,4l0 0 23 0 0 0 -1 0c-4,0 -6,-4 -7,-7l-22 -59 0 0 -5 13z"/>
   <path class="fil0" d="M726 470l0 -1c0,0 0,1 1,1 1,0 1,-1 2,-1 1,-1 2,-3 2,-5l0 -53 0 -1c0,-1 0,-1 0,-2 -1,-1 -1,-2 -2,-3 -1,0 -1,0 -2,0 0,0 -1,0 -1,0l0 -1 20 0 0 1c-1,0 -1,0 -1,0 -1,0 -1,0 -1,0 -1,0 -1,0 -1,0 -1,1 -2,2 -2,3 0,1 -1,2 -1,3l1 53c0,2 0,4 2,5l25 0c2,0 4,-1 5,-2 0,0 0,-2 0,-4 0,0 0,-1 0,-1l1 0 0 8 -48 0zm47 -17l-20 0 0 0c0,0 0,0 1,0 0,0 0,0 1,0 0,0 1,-1 1,-1 1,-1 2,-2 2,-4 0,-1 0,-3 0,-4 0,0 0,-1 0,-1 0,-1 0,-1 0,-2l0 -29c0,-2 0,-3 -1,-4 0,-2 -1,-2 -1,-3 -1,0 -1,0 -2,0 0,0 -1,0 -1,0l0 -1 20 0 0 1c-1,0 -1,0 -1,0 -1,0 -1,0 -2,0 0,0 -1,0 -1,1 -1,1 -2,3 -2,5l0 1 0 34c0,1 0,1 1,2 0,2 0,3 2,4 0,1 1,1 2,1 0,0 0,0 0,0l1 0 0 0z"/>
  </g>
 </g>
</svg>
